<mxfile host="app.diagrams.net" modified="2023-08-29T08:46:09.232Z" agent="Mozilla/5.0 (Windows NT 10.0; Win64; x64) AppleWebKit/537.36 (KHTML, like Gecko) Chrome/116.0.0.0 Safari/537.36" etag="EBXjlhg9Wq5MlniFpdzz" version="21.6.9" type="github">
  <diagram name="Page-1" id="c4acf3e9-155e-7222-9cf6-157b1a14988f">
    <mxGraphModel dx="2216" dy="1822" grid="1" gridSize="10" guides="1" tooltips="1" connect="1" arrows="1" fold="1" page="1" pageScale="1" pageWidth="850" pageHeight="1100" background="none" math="0" shadow="0">
      <root>
        <mxCell id="0" />
        <mxCell id="1" parent="0" />
        <mxCell id="kXERH5WRXTDbvPKdv0Vd-1" value="frame" style="shape=umlFrame;whiteSpace=wrap;html=1;rounded=0;shadow=0;comic=0;labelBackgroundColor=none;strokeWidth=1;fontFamily=Verdana;fontSize=10;align=center;strokeColor=default;fontColor=#000000;" parent="1" vertex="1">
          <mxGeometry x="1590" y="-100" width="240" height="190" as="geometry" />
        </mxCell>
        <mxCell id="0vwsj-OxrEaZ8M-4bbcg-251" style="edgeStyle=orthogonalEdgeStyle;rounded=0;orthogonalLoop=1;jettySize=auto;html=1;exitX=0.001;exitY=0.03;exitDx=0;exitDy=0;entryX=-0.001;entryY=0.033;entryDx=0;entryDy=0;entryPerimeter=0;exitPerimeter=0;" edge="1" parent="1" source="kXERH5WRXTDbvPKdv0Vd-4" target="0vwsj-OxrEaZ8M-4bbcg-122">
          <mxGeometry relative="1" as="geometry">
            <Array as="points">
              <mxPoint x="-50" y="190" />
              <mxPoint x="-50" y="1354" />
            </Array>
          </mxGeometry>
        </mxCell>
        <mxCell id="kXERH5WRXTDbvPKdv0Vd-4" value="&lt;i style=&quot;border-color: var(--border-color); font-family: Helvetica; font-size: 12px;&quot;&gt;&amp;lt;&amp;lt;Form&amp;gt;&amp;gt;&lt;/i&gt;&lt;br style=&quot;border-color: var(--border-color); font-family: Helvetica; font-size: 12px;&quot;&gt;&lt;b style=&quot;border-color: var(--border-color); font-family: Helvetica; font-size: 12px; background-color: initial;&quot;&gt;frmMain&lt;/b&gt;" style="swimlane;html=1;fontStyle=0;childLayout=stackLayout;horizontal=1;startSize=50;fillColor=none;horizontalStack=0;resizeParent=1;resizeLast=0;collapsible=1;marginBottom=0;swimlaneFillColor=#ffffff;rounded=0;shadow=0;comic=0;labelBackgroundColor=none;strokeWidth=1;fontFamily=Verdana;fontSize=10;align=center;strokeColor=default;fontColor=#000000;" parent="1" vertex="1">
          <mxGeometry x="40" y="160" width="340" height="1010" as="geometry">
            <mxRectangle x="40" y="160" width="100" height="50" as="alternateBounds" />
          </mxGeometry>
        </mxCell>
        <mxCell id="kXERH5WRXTDbvPKdv0Vd-39" value="+&amp;nbsp; RECT&amp;nbsp; : struct" style="text;html=1;align=left;verticalAlign=top;spacingLeft=4;spacingRight=4;whiteSpace=wrap;overflow=hidden;rotatable=0;points=[[0,0.5],[1,0.5]];portConstraint=eastwest;labelBorderColor=none;strokeColor=default;" parent="kXERH5WRXTDbvPKdv0Vd-4" vertex="1">
          <mxGeometry y="50" width="340" height="26" as="geometry" />
        </mxCell>
        <mxCell id="kXERH5WRXTDbvPKdv0Vd-33" value="+&amp;nbsp; SystemMetric : enum&amp;nbsp;" style="text;html=1;align=left;verticalAlign=top;spacingLeft=4;spacingRight=4;whiteSpace=wrap;overflow=hidden;rotatable=0;points=[[0,0.5],[1,0.5]];portConstraint=eastwest;labelBorderColor=none;strokeColor=default;" parent="kXERH5WRXTDbvPKdv0Vd-4" vertex="1">
          <mxGeometry y="76" width="340" height="26" as="geometry" />
        </mxCell>
        <mxCell id="kXERH5WRXTDbvPKdv0Vd-55" value="+&amp;nbsp; HandleType : enum&amp;nbsp;" style="text;html=1;align=left;verticalAlign=top;spacingLeft=4;spacingRight=4;whiteSpace=wrap;overflow=hidden;rotatable=0;points=[[0,0.5],[1,0.5]];portConstraint=eastwest;labelBorderColor=none;strokeColor=default;" parent="kXERH5WRXTDbvPKdv0Vd-4" vertex="1">
          <mxGeometry y="102" width="340" height="26" as="geometry" />
        </mxCell>
        <mxCell id="kXERH5WRXTDbvPKdv0Vd-68" value="+&amp;nbsp; HandleObject : class&amp;nbsp;" style="text;html=1;align=left;verticalAlign=top;spacingLeft=4;spacingRight=4;whiteSpace=wrap;overflow=hidden;rotatable=0;points=[[0,0.5],[1,0.5]];portConstraint=eastwest;labelBorderColor=none;strokeColor=default;" parent="kXERH5WRXTDbvPKdv0Vd-4" vertex="1">
          <mxGeometry y="128" width="340" height="26" as="geometry" />
        </mxCell>
        <mxCell id="kXERH5WRXTDbvPKdv0Vd-79" value="+&amp;nbsp; frmMain : this&amp;nbsp;" style="text;html=1;align=left;verticalAlign=top;spacingLeft=4;spacingRight=4;whiteSpace=wrap;overflow=hidden;rotatable=0;points=[[0,0.5],[1,0.5]];portConstraint=eastwest;labelBorderColor=none;strokeColor=none;" parent="kXERH5WRXTDbvPKdv0Vd-4" vertex="1">
          <mxGeometry y="154" width="340" height="26" as="geometry" />
        </mxCell>
        <mxCell id="kXERH5WRXTDbvPKdv0Vd-5" value="&amp;nbsp;&amp;nbsp;[&lt;font color=&quot;#009900&quot;&gt;DllImport&lt;/font&gt;(&lt;font color=&quot;#ff8000&quot;&gt;&quot;user32.dll&quot;&lt;/font&gt;)]" style="text;html=1;strokeColor=none;fillColor=none;align=left;verticalAlign=top;spacingLeft=4;spacingRight=4;whiteSpace=wrap;overflow=hidden;rotatable=0;points=[[0,0.5],[1,0.5]];portConstraint=eastwest;" parent="kXERH5WRXTDbvPKdv0Vd-4" vertex="1">
          <mxGeometry y="180" width="340" height="26" as="geometry" />
        </mxCell>
        <mxCell id="kXERH5WRXTDbvPKdv0Vd-6" value="&lt;span style=&quot;white-space: pre;&quot;&gt;&#x9;&lt;/span&gt;+ &lt;font&gt;FindWindow&lt;/font&gt;(string sClass ,str sWindow): int" style="text;html=1;strokeColor=none;fillColor=none;align=left;verticalAlign=top;spacingLeft=4;spacingRight=4;whiteSpace=wrap;overflow=hidden;rotatable=0;points=[[0,0.5],[1,0.5]];portConstraint=eastwest;fontColor=#000000;" parent="kXERH5WRXTDbvPKdv0Vd-4" vertex="1">
          <mxGeometry y="206" width="340" height="26" as="geometry" />
        </mxCell>
        <mxCell id="kXERH5WRXTDbvPKdv0Vd-7" value="&lt;span style=&quot;white-space: pre;&quot;&gt;&#x9;&lt;/span&gt;+ &lt;font&gt;FindWindow&lt;/font&gt;(string sClass ,str sWindow): int" style="text;html=1;strokeColor=none;fillColor=none;align=left;verticalAlign=top;spacingLeft=4;spacingRight=4;whiteSpace=wrap;overflow=hidden;rotatable=0;points=[[0,0.5],[1,0.5]];portConstraint=eastwest;fontColor=#000000;" parent="kXERH5WRXTDbvPKdv0Vd-4" vertex="1">
          <mxGeometry y="232" width="340" height="26" as="geometry" />
        </mxCell>
        <mxCell id="kXERH5WRXTDbvPKdv0Vd-8" value="&#x9;&lt;span style=&quot;white-space: pre;&quot;&gt;&#x9;&lt;/span&gt;+&amp;nbsp;&lt;span style=&quot;background-color: initial;&quot;&gt;&lt;font&gt;IsWindowVisible&lt;/font&gt;(IntPtr hWnd): bool&lt;/span&gt;&lt;br&gt;&lt;div&gt;&lt;br&gt;&lt;/div&gt;" style="text;html=1;strokeColor=none;fillColor=none;align=left;verticalAlign=top;spacingLeft=4;spacingRight=4;whiteSpace=wrap;overflow=hidden;rotatable=0;points=[[0,0.5],[1,0.5]];portConstraint=eastwest;fontColor=#000000;" parent="kXERH5WRXTDbvPKdv0Vd-4" vertex="1">
          <mxGeometry y="258" width="340" height="26" as="geometry" />
        </mxCell>
        <mxCell id="kXERH5WRXTDbvPKdv0Vd-10" value="&lt;span style=&quot;white-space: pre;&quot;&gt;&#x9;&lt;/span&gt;#if DEBUG" style="text;html=1;strokeColor=none;fillColor=none;align=left;verticalAlign=top;spacingLeft=4;spacingRight=4;whiteSpace=wrap;overflow=hidden;rotatable=0;points=[[0,0.5],[1,0.5]];portConstraint=eastwest;fontColor=#000000;" parent="kXERH5WRXTDbvPKdv0Vd-4" vertex="1">
          <mxGeometry y="284" width="340" height="26" as="geometry" />
        </mxCell>
        <mxCell id="kXERH5WRXTDbvPKdv0Vd-11" value="&lt;p style=&quot;border-color: var(--border-color); margin: 0px 0px 0px 4px; line-height: 20.4px;&quot;&gt;&lt;span style=&quot;white-space: pre;&quot;&gt;&#x9;&lt;/span&gt;&lt;span style=&quot;white-space: pre;&quot;&gt;&#x9;&lt;/span&gt;+ &lt;font&gt;GetWindowText&lt;/font&gt;(IntPtr, text, int count): int&lt;/p&gt;&lt;div&gt;&lt;br&gt;&lt;/div&gt;" style="text;html=1;strokeColor=none;fillColor=none;align=left;verticalAlign=top;spacingLeft=4;spacingRight=4;whiteSpace=wrap;overflow=hidden;rotatable=0;points=[[0,0.5],[1,0.5]];portConstraint=eastwest;fontColor=#000000;" parent="kXERH5WRXTDbvPKdv0Vd-4" vertex="1">
          <mxGeometry y="310" width="340" height="26" as="geometry" />
        </mxCell>
        <mxCell id="kXERH5WRXTDbvPKdv0Vd-12" value="&lt;p style=&quot;border-color: var(--border-color); margin: 0px 0px 0px 4px; line-height: 20.4px;&quot;&gt;&lt;span style=&quot;white-space: pre;&quot;&gt;&#x9;&lt;/span&gt;+ &lt;font&gt;GetWindowRect&lt;/font&gt;(IntPtr, ref RECT): bool&lt;br style=&quot;border-color: var(--border-color);&quot;&gt;&lt;/p&gt;&lt;div&gt;&lt;span style=&quot;border-color: var(--border-color); background-color: initial;&quot;&gt;&lt;br&gt;&lt;/span&gt;&lt;/div&gt;" style="text;html=1;strokeColor=none;fillColor=none;align=left;verticalAlign=top;spacingLeft=4;spacingRight=4;whiteSpace=wrap;overflow=hidden;rotatable=0;points=[[0,0.5],[1,0.5]];portConstraint=eastwest;fontColor=#000000;" parent="kXERH5WRXTDbvPKdv0Vd-4" vertex="1">
          <mxGeometry y="336" width="340" height="26" as="geometry" />
        </mxCell>
        <mxCell id="kXERH5WRXTDbvPKdv0Vd-13" value="&amp;nbsp; &amp;nbsp; &lt;span style=&quot;&quot;&gt;&lt;span style=&quot;white-space: pre;&quot;&gt;&amp;nbsp;&amp;nbsp;&amp;nbsp;&amp;nbsp;&lt;/span&gt;&lt;/span&gt;&amp;nbsp;+ &lt;font&gt;GetWindow&lt;/font&gt;(IntPtr, uint): IntPtr" style="text;html=1;strokeColor=none;fillColor=none;align=left;verticalAlign=top;spacingLeft=4;spacingRight=4;whiteSpace=wrap;overflow=hidden;rotatable=0;points=[[0,0.5],[1,0.5]];portConstraint=eastwest;fontColor=#000000;" parent="kXERH5WRXTDbvPKdv0Vd-4" vertex="1">
          <mxGeometry y="362" width="340" height="26" as="geometry" />
        </mxCell>
        <mxCell id="kXERH5WRXTDbvPKdv0Vd-14" value="&amp;nbsp; &amp;nbsp; &lt;span style=&quot;&quot;&gt;&lt;span style=&quot;&quot;&gt;&amp;nbsp;&amp;nbsp;&amp;nbsp;&amp;nbsp;&lt;/span&gt;&lt;/span&gt;&amp;nbsp;+ &lt;font&gt;GetDesktopWindow&lt;/font&gt;(): IntPtr" style="text;html=1;strokeColor=none;fillColor=none;align=left;verticalAlign=top;spacingLeft=4;spacingRight=4;whiteSpace=wrap;overflow=hidden;rotatable=0;points=[[0,0.5],[1,0.5]];portConstraint=eastwest;fontColor=#000000;" parent="kXERH5WRXTDbvPKdv0Vd-4" vertex="1">
          <mxGeometry y="388" width="340" height="26" as="geometry" />
        </mxCell>
        <mxCell id="kXERH5WRXTDbvPKdv0Vd-15" value="&amp;nbsp; &amp;nbsp; &lt;span style=&quot;&quot;&gt;&lt;span style=&quot;&quot;&gt;&amp;nbsp;&amp;nbsp;&amp;nbsp;&amp;nbsp;&lt;/span&gt;&lt;/span&gt;&amp;nbsp;+ &lt;font&gt;GetTopWindow&lt;/font&gt;(IntPtr): IntPtr" style="text;html=1;strokeColor=none;fillColor=none;align=left;verticalAlign=top;spacingLeft=4;spacingRight=4;whiteSpace=wrap;overflow=hidden;rotatable=0;points=[[0,0.5],[1,0.5]];portConstraint=eastwest;fontColor=#000000;" parent="kXERH5WRXTDbvPKdv0Vd-4" vertex="1">
          <mxGeometry y="414" width="340" height="26" as="geometry" />
        </mxCell>
        <mxCell id="kXERH5WRXTDbvPKdv0Vd-16" value="&amp;nbsp; &amp;nbsp; &lt;span style=&quot;&quot;&gt;&lt;span style=&quot;&quot;&gt;&amp;nbsp;&amp;nbsp;&amp;nbsp;&amp;nbsp;&lt;/span&gt;&lt;/span&gt;&amp;nbsp;+ &lt;font&gt;GetWindowLong&lt;/font&gt;(IntPtr, int): long" style="text;html=1;strokeColor=none;fillColor=none;align=left;verticalAlign=top;spacingLeft=4;spacingRight=4;whiteSpace=wrap;overflow=hidden;rotatable=0;points=[[0,0.5],[1,0.5]];portConstraint=eastwest;fontColor=#000000;" parent="kXERH5WRXTDbvPKdv0Vd-4" vertex="1">
          <mxGeometry y="440" width="340" height="26" as="geometry" />
        </mxCell>
        <mxCell id="kXERH5WRXTDbvPKdv0Vd-54" value="&amp;nbsp; &amp;nbsp; &lt;span style=&quot;&quot;&gt;&lt;span style=&quot;&quot;&gt;&amp;nbsp;&amp;nbsp;&amp;nbsp;&amp;nbsp;&lt;/span&gt;&lt;/span&gt;&amp;nbsp;+ &lt;font&gt;GetSystemMetrics&lt;/font&gt;(SystemMetric): int" style="text;html=1;strokeColor=none;fillColor=none;align=left;verticalAlign=top;spacingLeft=4;spacingRight=4;whiteSpace=wrap;overflow=hidden;rotatable=0;points=[[0,0.5],[1,0.5]];portConstraint=eastwest;fontColor=#000000;" parent="kXERH5WRXTDbvPKdv0Vd-4" vertex="1">
          <mxGeometry y="466" width="340" height="26" as="geometry" />
        </mxCell>
        <mxCell id="kXERH5WRXTDbvPKdv0Vd-17" value="+&amp;nbsp; GW_HWNDPREV&amp;nbsp; : uint&amp;nbsp; &amp;nbsp;= 3" style="text;html=1;align=left;verticalAlign=top;spacingLeft=4;spacingRight=4;whiteSpace=wrap;overflow=hidden;rotatable=0;points=[[0,0.5],[1,0.5]];portConstraint=eastwest;labelBorderColor=none;strokeColor=none;" parent="kXERH5WRXTDbvPKdv0Vd-4" vertex="1">
          <mxGeometry y="492" width="340" height="26" as="geometry" />
        </mxCell>
        <mxCell id="kXERH5WRXTDbvPKdv0Vd-21" value="+&amp;nbsp; GW_HWNDNEXT&amp;nbsp; : uint&amp;nbsp; &amp;nbsp;= 2" style="text;html=1;align=left;verticalAlign=top;spacingLeft=4;spacingRight=4;whiteSpace=wrap;overflow=hidden;rotatable=0;points=[[0,0.5],[1,0.5]];portConstraint=eastwest;labelBorderColor=none;strokeColor=none;" parent="kXERH5WRXTDbvPKdv0Vd-4" vertex="1">
          <mxGeometry y="518" width="340" height="26" as="geometry" />
        </mxCell>
        <mxCell id="kXERH5WRXTDbvPKdv0Vd-22" value="+&amp;nbsp; GW_HWNDLAST&amp;nbsp; : uint&amp;nbsp; &amp;nbsp;= 1" style="text;html=1;align=left;verticalAlign=top;spacingLeft=4;spacingRight=4;whiteSpace=wrap;overflow=hidden;rotatable=0;points=[[0,0.5],[1,0.5]];portConstraint=eastwest;labelBorderColor=none;strokeColor=none;" parent="kXERH5WRXTDbvPKdv0Vd-4" vertex="1">
          <mxGeometry y="544" width="340" height="26" as="geometry" />
        </mxCell>
        <mxCell id="kXERH5WRXTDbvPKdv0Vd-23" value="+&amp;nbsp; GW_HWNDFIRST&amp;nbsp; : uint&amp;nbsp; &amp;nbsp;= 0" style="text;html=1;align=left;verticalAlign=top;spacingLeft=4;spacingRight=4;whiteSpace=wrap;overflow=hidden;rotatable=0;points=[[0,0.5],[1,0.5]];portConstraint=eastwest;labelBorderColor=none;strokeColor=none;" parent="kXERH5WRXTDbvPKdv0Vd-4" vertex="1">
          <mxGeometry y="570" width="340" height="26" as="geometry" />
        </mxCell>
        <mxCell id="kXERH5WRXTDbvPKdv0Vd-24" value="+&amp;nbsp; GWL_STYLE&amp;nbsp; : uint&amp;nbsp; &amp;nbsp;= -16" style="text;html=1;align=left;verticalAlign=top;spacingLeft=4;spacingRight=4;whiteSpace=wrap;overflow=hidden;rotatable=0;points=[[0,0.5],[1,0.5]];portConstraint=eastwest;labelBorderColor=none;strokeColor=none;" parent="kXERH5WRXTDbvPKdv0Vd-4" vertex="1">
          <mxGeometry y="596" width="340" height="26" as="geometry" />
        </mxCell>
        <mxCell id="kXERH5WRXTDbvPKdv0Vd-25" value="+&amp;nbsp; WS_MINIMIZE&amp;nbsp; : Int64&amp;nbsp; &amp;nbsp;= 0x20000000L" style="text;html=1;align=left;verticalAlign=top;spacingLeft=4;spacingRight=4;whiteSpace=wrap;overflow=hidden;rotatable=0;points=[[0,0.5],[1,0.5]];portConstraint=eastwest;labelBorderColor=none;strokeColor=none;" parent="kXERH5WRXTDbvPKdv0Vd-4" vertex="1">
          <mxGeometry y="622" width="340" height="26" as="geometry" />
        </mxCell>
        <mxCell id="kXERH5WRXTDbvPKdv0Vd-74" value="+&amp;nbsp; m_lsHandle&amp;nbsp; : List&amp;lt;HandleObject&amp;gt;" style="text;html=1;align=left;verticalAlign=top;spacingLeft=4;spacingRight=4;whiteSpace=wrap;overflow=hidden;rotatable=0;points=[[0,0.5],[1,0.5]];portConstraint=eastwest;labelBorderColor=none;strokeColor=none;" parent="kXERH5WRXTDbvPKdv0Vd-4" vertex="1">
          <mxGeometry y="648" width="340" height="26" as="geometry" />
        </mxCell>
        <mxCell id="kXERH5WRXTDbvPKdv0Vd-76" value="+&amp;nbsp; m_Aoi_ShowHide : bool" style="text;html=1;align=left;verticalAlign=top;spacingLeft=4;spacingRight=4;whiteSpace=wrap;overflow=hidden;rotatable=0;points=[[0,0.5],[1,0.5]];portConstraint=eastwest;labelBorderColor=none;strokeColor=none;" parent="kXERH5WRXTDbvPKdv0Vd-4" vertex="1">
          <mxGeometry y="674" width="340" height="26" as="geometry" />
        </mxCell>
        <mxCell id="kXERH5WRXTDbvPKdv0Vd-77" value="+&amp;nbsp; m_TopMostTimer : &lt;font color=&quot;#00cc00&quot;&gt;Timer&lt;/font&gt;" style="text;html=1;align=left;verticalAlign=top;spacingLeft=4;spacingRight=4;whiteSpace=wrap;overflow=hidden;rotatable=0;points=[[0,0.5],[1,0.5]];portConstraint=eastwest;labelBorderColor=none;strokeColor=none;" parent="kXERH5WRXTDbvPKdv0Vd-4" vertex="1">
          <mxGeometry y="700" width="340" height="26" as="geometry" />
        </mxCell>
        <mxCell id="kXERH5WRXTDbvPKdv0Vd-78" value="+&amp;nbsp; NeedMoveWindow(Form): bool" style="text;html=1;align=left;verticalAlign=top;spacingLeft=4;spacingRight=4;whiteSpace=wrap;overflow=hidden;rotatable=0;points=[[0,0.5],[1,0.5]];portConstraint=eastwest;labelBorderColor=none;strokeColor=none;" parent="kXERH5WRXTDbvPKdv0Vd-4" vertex="1">
          <mxGeometry y="726" width="340" height="26" as="geometry" />
        </mxCell>
        <mxCell id="kXERH5WRXTDbvPKdv0Vd-80" value="+&amp;nbsp; TopmostEditForm(Form) : void" style="text;html=1;align=left;verticalAlign=top;spacingLeft=4;spacingRight=4;whiteSpace=wrap;overflow=hidden;rotatable=0;points=[[0,0.5],[1,0.5]];portConstraint=eastwest;labelBorderColor=none;strokeColor=none;" parent="kXERH5WRXTDbvPKdv0Vd-4" vertex="1">
          <mxGeometry y="752" width="340" height="26" as="geometry" />
        </mxCell>
        <mxCell id="kXERH5WRXTDbvPKdv0Vd-81" value="+&amp;nbsp; TopMostTimer_Tick(object, EventArgs) : void" style="text;html=1;align=left;verticalAlign=top;spacingLeft=4;spacingRight=4;whiteSpace=wrap;overflow=hidden;rotatable=0;points=[[0,0.5],[1,0.5]];portConstraint=eastwest;labelBorderColor=none;strokeColor=default;dashed=1;" parent="kXERH5WRXTDbvPKdv0Vd-4" vertex="1">
          <mxGeometry y="778" width="340" height="26" as="geometry" />
        </mxCell>
        <mxCell id="kXERH5WRXTDbvPKdv0Vd-82" value="+&amp;nbsp; frmMain_Load(object, EventArgs) : void" style="text;html=1;align=left;verticalAlign=top;spacingLeft=4;spacingRight=4;whiteSpace=wrap;overflow=hidden;rotatable=0;points=[[0,0.5],[1,0.5]];portConstraint=eastwest;labelBorderColor=none;strokeColor=default;dashed=1;" parent="kXERH5WRXTDbvPKdv0Vd-4" vertex="1">
          <mxGeometry y="804" width="340" height="26" as="geometry" />
        </mxCell>
        <mxCell id="kXERH5WRXTDbvPKdv0Vd-83" value="+&amp;nbsp; bInit&amp;nbsp; : bool&amp;nbsp; &amp;nbsp;= false" style="text;html=1;align=left;verticalAlign=top;spacingLeft=4;spacingRight=4;whiteSpace=wrap;overflow=hidden;rotatable=0;points=[[0,0.5],[1,0.5]];portConstraint=eastwest;labelBorderColor=none;strokeColor=none;" parent="kXERH5WRXTDbvPKdv0Vd-4" vertex="1">
          <mxGeometry y="830" width="340" height="26" as="geometry" />
        </mxCell>
        <mxCell id="kXERH5WRXTDbvPKdv0Vd-85" value="+&amp;nbsp; frmMain_Shown(object, EventArgs) : void" style="text;html=1;align=left;verticalAlign=top;spacingLeft=4;spacingRight=4;whiteSpace=wrap;overflow=hidden;rotatable=0;points=[[0,0.5],[1,0.5]];portConstraint=eastwest;labelBorderColor=none;strokeColor=default;dashed=1;" parent="kXERH5WRXTDbvPKdv0Vd-4" vertex="1">
          <mxGeometry y="856" width="340" height="26" as="geometry" />
        </mxCell>
        <mxCell id="kXERH5WRXTDbvPKdv0Vd-86" value="+&amp;nbsp; WM_TUC_MSG&amp;nbsp; : int&amp;nbsp; &amp;nbsp;=&amp;nbsp;0x8000 + 2000" style="text;html=1;align=left;verticalAlign=top;spacingLeft=4;spacingRight=4;whiteSpace=wrap;overflow=hidden;rotatable=0;points=[[0,0.5],[1,0.5]];portConstraint=eastwest;labelBorderColor=none;strokeColor=none;" parent="kXERH5WRXTDbvPKdv0Vd-4" vertex="1">
          <mxGeometry y="882" width="340" height="26" as="geometry" />
        </mxCell>
        <mxCell id="kXERH5WRXTDbvPKdv0Vd-87" value="+&amp;nbsp; WM_TUC_SHOW_CMD&amp;nbsp; : int&amp;nbsp; &amp;nbsp;=&amp;nbsp;0x8000 + 2001" style="text;html=1;align=left;verticalAlign=top;spacingLeft=4;spacingRight=4;whiteSpace=wrap;overflow=hidden;rotatable=0;points=[[0,0.5],[1,0.5]];portConstraint=eastwest;labelBorderColor=none;strokeColor=none;" parent="kXERH5WRXTDbvPKdv0Vd-4" vertex="1">
          <mxGeometry y="908" width="340" height="24" as="geometry" />
        </mxCell>
        <mxCell id="kXERH5WRXTDbvPKdv0Vd-88" value="+&amp;nbsp; AddHandle(Form) : void" style="text;html=1;align=left;verticalAlign=top;spacingLeft=4;spacingRight=4;whiteSpace=wrap;overflow=hidden;rotatable=0;points=[[0,0.5],[1,0.5]];portConstraint=eastwest;labelBorderColor=none;strokeColor=none;" parent="kXERH5WRXTDbvPKdv0Vd-4" vertex="1">
          <mxGeometry y="932" width="340" height="26" as="geometry" />
        </mxCell>
        <mxCell id="kXERH5WRXTDbvPKdv0Vd-89" value="+&amp;nbsp; RemoveHandle(IntPtr) : void" style="text;html=1;align=left;verticalAlign=top;spacingLeft=4;spacingRight=4;whiteSpace=wrap;overflow=hidden;rotatable=0;points=[[0,0.5],[1,0.5]];portConstraint=eastwest;labelBorderColor=none;strokeColor=none;" parent="kXERH5WRXTDbvPKdv0Vd-4" vertex="1">
          <mxGeometry y="958" width="340" height="26" as="geometry" />
        </mxCell>
        <mxCell id="kXERH5WRXTDbvPKdv0Vd-90" value="+&amp;nbsp; [override]WndProc(ref &lt;font color=&quot;#009900&quot;&gt;Message&lt;/font&gt;) : void" style="text;html=1;align=left;verticalAlign=top;spacingLeft=4;spacingRight=4;whiteSpace=wrap;overflow=hidden;rotatable=0;points=[[0,0.5],[1,0.5]];portConstraint=eastwest;labelBorderColor=none;strokeColor=default;dashed=1;dashPattern=1 4;" parent="kXERH5WRXTDbvPKdv0Vd-4" vertex="1">
          <mxGeometry y="984" width="340" height="26" as="geometry" />
        </mxCell>
        <mxCell id="kXERH5WRXTDbvPKdv0Vd-26" value="&lt;i style=&quot;border-color: var(--border-color); font-size: 12px; font-family: Helvetica;&quot;&gt;&amp;lt;&amp;lt;enum&amp;gt;&amp;gt;&lt;/i&gt;&lt;br style=&quot;border-color: var(--border-color); font-size: 12px; font-family: Helvetica;&quot;&gt;&lt;b style=&quot;border-color: var(--border-color); font-size: 12px; background-color: initial; font-family: Helvetica;&quot;&gt;SystemMetric&lt;/b&gt;" style="swimlane;html=1;fontStyle=0;childLayout=stackLayout;horizontal=1;startSize=40;fillColor=none;horizontalStack=0;resizeParent=1;resizeLast=0;collapsible=1;marginBottom=0;swimlaneFillColor=#ffffff;rounded=0;shadow=0;comic=0;labelBackgroundColor=none;strokeWidth=1;fontFamily=Verdana;fontSize=10;align=center;" parent="1" vertex="1">
          <mxGeometry x="520" y="320" width="230" height="310" as="geometry" />
        </mxCell>
        <mxCell id="kXERH5WRXTDbvPKdv0Vd-27" value="+ SM_CXSCREEN: 0" style="text;html=1;strokeColor=none;fillColor=none;align=left;verticalAlign=top;spacingLeft=4;spacingRight=4;whiteSpace=wrap;overflow=hidden;rotatable=0;points=[[0,0.5],[1,0.5]];portConstraint=eastwest;" parent="kXERH5WRXTDbvPKdv0Vd-26" vertex="1">
          <mxGeometry y="40" width="230" height="26" as="geometry" />
        </mxCell>
        <mxCell id="kXERH5WRXTDbvPKdv0Vd-28" value="+ SM_CYSCREEN: 1" style="text;html=1;strokeColor=none;fillColor=none;align=left;verticalAlign=top;spacingLeft=4;spacingRight=4;whiteSpace=wrap;overflow=hidden;rotatable=0;points=[[0,0.5],[1,0.5]];portConstraint=eastwest;" parent="kXERH5WRXTDbvPKdv0Vd-26" vertex="1">
          <mxGeometry y="66" width="230" height="26" as="geometry" />
        </mxCell>
        <mxCell id="kXERH5WRXTDbvPKdv0Vd-29" value="+ SM_CXVSCROLL: 2" style="text;html=1;strokeColor=none;fillColor=none;align=left;verticalAlign=top;spacingLeft=4;spacingRight=4;whiteSpace=wrap;overflow=hidden;rotatable=0;points=[[0,0.5],[1,0.5]];portConstraint=eastwest;" parent="kXERH5WRXTDbvPKdv0Vd-26" vertex="1">
          <mxGeometry y="92" width="230" height="26" as="geometry" />
        </mxCell>
        <mxCell id="kXERH5WRXTDbvPKdv0Vd-30" value="+ SM_CYHSCROLL: 3" style="text;html=1;strokeColor=none;fillColor=none;align=left;verticalAlign=top;spacingLeft=4;spacingRight=4;whiteSpace=wrap;overflow=hidden;rotatable=0;points=[[0,0.5],[1,0.5]];portConstraint=eastwest;" parent="kXERH5WRXTDbvPKdv0Vd-26" vertex="1">
          <mxGeometry y="118" width="230" height="26" as="geometry" />
        </mxCell>
        <mxCell id="kXERH5WRXTDbvPKdv0Vd-31" value="+ SM_XVIRTUALSCREEN: 76" style="text;html=1;strokeColor=none;fillColor=none;align=left;verticalAlign=top;spacingLeft=4;spacingRight=4;whiteSpace=wrap;overflow=hidden;rotatable=0;points=[[0,0.5],[1,0.5]];portConstraint=eastwest;" parent="kXERH5WRXTDbvPKdv0Vd-26" vertex="1">
          <mxGeometry y="144" width="230" height="26" as="geometry" />
        </mxCell>
        <mxCell id="kXERH5WRXTDbvPKdv0Vd-32" value="+ SM_YVIRTUALSCREEN: 77" style="text;html=1;strokeColor=none;fillColor=none;align=left;verticalAlign=top;spacingLeft=4;spacingRight=4;whiteSpace=wrap;overflow=hidden;rotatable=0;points=[[0,0.5],[1,0.5]];portConstraint=eastwest;" parent="kXERH5WRXTDbvPKdv0Vd-26" vertex="1">
          <mxGeometry y="170" width="230" height="26" as="geometry" />
        </mxCell>
        <mxCell id="kXERH5WRXTDbvPKdv0Vd-34" value="+ SM_CXVIRTUALSCREEN: 78" style="text;html=1;strokeColor=none;fillColor=none;align=left;verticalAlign=top;spacingLeft=4;spacingRight=4;whiteSpace=wrap;overflow=hidden;rotatable=0;points=[[0,0.5],[1,0.5]];portConstraint=eastwest;" parent="kXERH5WRXTDbvPKdv0Vd-26" vertex="1">
          <mxGeometry y="196" width="230" height="26" as="geometry" />
        </mxCell>
        <mxCell id="kXERH5WRXTDbvPKdv0Vd-35" value="+ SM_CYVIRTUALSCREEN: 79" style="text;html=1;strokeColor=none;fillColor=none;align=left;verticalAlign=top;spacingLeft=4;spacingRight=4;whiteSpace=wrap;overflow=hidden;rotatable=0;points=[[0,0.5],[1,0.5]];portConstraint=eastwest;" parent="kXERH5WRXTDbvPKdv0Vd-26" vertex="1">
          <mxGeometry y="222" width="230" height="26" as="geometry" />
        </mxCell>
        <mxCell id="kXERH5WRXTDbvPKdv0Vd-36" value="+ SM_CMONITORS: 80" style="text;html=1;strokeColor=none;fillColor=none;align=left;verticalAlign=top;spacingLeft=4;spacingRight=4;whiteSpace=wrap;overflow=hidden;rotatable=0;points=[[0,0.5],[1,0.5]];portConstraint=eastwest;" parent="kXERH5WRXTDbvPKdv0Vd-26" vertex="1">
          <mxGeometry y="248" width="230" height="26" as="geometry" />
        </mxCell>
        <mxCell id="kXERH5WRXTDbvPKdv0Vd-37" value="+ SM_REMOTECONTROL: 0x2001" style="text;html=1;strokeColor=none;fillColor=none;align=left;verticalAlign=top;spacingLeft=4;spacingRight=4;whiteSpace=wrap;overflow=hidden;rotatable=0;points=[[0,0.5],[1,0.5]];portConstraint=eastwest;" parent="kXERH5WRXTDbvPKdv0Vd-26" vertex="1">
          <mxGeometry y="274" width="230" height="26" as="geometry" />
        </mxCell>
        <mxCell id="0vwsj-OxrEaZ8M-4bbcg-89" style="edgeStyle=orthogonalEdgeStyle;rounded=0;orthogonalLoop=1;jettySize=auto;html=1;exitX=0;exitY=0.25;exitDx=0;exitDy=0;entryX=1;entryY=0.5;entryDx=0;entryDy=0;" edge="1" parent="1" source="kXERH5WRXTDbvPKdv0Vd-40" target="kXERH5WRXTDbvPKdv0Vd-39">
          <mxGeometry relative="1" as="geometry">
            <Array as="points">
              <mxPoint x="520" y="180" />
              <mxPoint x="500" y="180" />
              <mxPoint x="500" y="223" />
            </Array>
          </mxGeometry>
        </mxCell>
        <mxCell id="kXERH5WRXTDbvPKdv0Vd-40" value="&lt;i style=&quot;border-color: var(--border-color); font-size: 12px; font-family: Helvetica;&quot;&gt;&amp;lt;&amp;lt;struct&amp;gt;&amp;gt;&lt;/i&gt;&lt;br style=&quot;border-color: var(--border-color); font-size: 12px; font-family: Helvetica;&quot;&gt;&lt;b style=&quot;border-color: var(--border-color); font-size: 12px; background-color: initial; font-family: Helvetica;&quot;&gt;RECT&lt;/b&gt;" style="swimlane;html=1;fontStyle=0;childLayout=stackLayout;horizontal=1;startSize=40;fillColor=none;horizontalStack=0;resizeParent=1;resizeLast=0;collapsible=1;marginBottom=0;swimlaneFillColor=#ffffff;rounded=0;shadow=0;comic=0;labelBackgroundColor=none;strokeWidth=1;fontFamily=Verdana;fontSize=10;align=center;" parent="1" vertex="1">
          <mxGeometry x="520" y="160" width="230" height="144" as="geometry">
            <mxRectangle x="520" y="160" width="100" height="40" as="alternateBounds" />
          </mxGeometry>
        </mxCell>
        <mxCell id="kXERH5WRXTDbvPKdv0Vd-41" value="+ Left: int" style="text;html=1;strokeColor=none;fillColor=none;align=left;verticalAlign=top;spacingLeft=4;spacingRight=4;whiteSpace=wrap;overflow=hidden;rotatable=0;points=[[0,0.5],[1,0.5]];portConstraint=eastwest;" parent="kXERH5WRXTDbvPKdv0Vd-40" vertex="1">
          <mxGeometry y="40" width="230" height="26" as="geometry" />
        </mxCell>
        <mxCell id="kXERH5WRXTDbvPKdv0Vd-42" value="+ Top: int" style="text;html=1;strokeColor=none;fillColor=none;align=left;verticalAlign=top;spacingLeft=4;spacingRight=4;whiteSpace=wrap;overflow=hidden;rotatable=0;points=[[0,0.5],[1,0.5]];portConstraint=eastwest;" parent="kXERH5WRXTDbvPKdv0Vd-40" vertex="1">
          <mxGeometry y="66" width="230" height="26" as="geometry" />
        </mxCell>
        <mxCell id="kXERH5WRXTDbvPKdv0Vd-43" value="+ Right: int" style="text;html=1;strokeColor=none;fillColor=none;align=left;verticalAlign=top;spacingLeft=4;spacingRight=4;whiteSpace=wrap;overflow=hidden;rotatable=0;points=[[0,0.5],[1,0.5]];portConstraint=eastwest;" parent="kXERH5WRXTDbvPKdv0Vd-40" vertex="1">
          <mxGeometry y="92" width="230" height="26" as="geometry" />
        </mxCell>
        <mxCell id="kXERH5WRXTDbvPKdv0Vd-44" value="+ Bottom: int" style="text;html=1;strokeColor=none;fillColor=none;align=left;verticalAlign=top;spacingLeft=4;spacingRight=4;whiteSpace=wrap;overflow=hidden;rotatable=0;points=[[0,0.5],[1,0.5]];portConstraint=eastwest;" parent="kXERH5WRXTDbvPKdv0Vd-40" vertex="1">
          <mxGeometry y="118" width="230" height="26" as="geometry" />
        </mxCell>
        <mxCell id="0vwsj-OxrEaZ8M-4bbcg-90" style="edgeStyle=orthogonalEdgeStyle;rounded=0;orthogonalLoop=1;jettySize=auto;html=1;exitX=-0.003;exitY=0.151;exitDx=0;exitDy=0;entryX=1;entryY=0.5;entryDx=0;entryDy=0;exitPerimeter=0;" edge="1" parent="1" source="kXERH5WRXTDbvPKdv0Vd-56" target="kXERH5WRXTDbvPKdv0Vd-55">
          <mxGeometry relative="1" as="geometry">
            <Array as="points">
              <mxPoint x="480" y="658" />
              <mxPoint x="480" y="275" />
            </Array>
          </mxGeometry>
        </mxCell>
        <mxCell id="kXERH5WRXTDbvPKdv0Vd-56" value="&lt;i style=&quot;border-color: var(--border-color); font-size: 12px; font-family: Helvetica;&quot;&gt;&amp;lt;&amp;lt;enum&amp;gt;&amp;gt;&lt;/i&gt;&lt;br style=&quot;border-color: var(--border-color); font-size: 12px; font-family: Helvetica;&quot;&gt;&lt;b style=&quot;border-color: var(--border-color); font-size: 12px; background-color: initial; font-family: Helvetica;&quot;&gt;HandleType&lt;/b&gt;" style="swimlane;html=1;fontStyle=0;childLayout=stackLayout;horizontal=1;startSize=40;fillColor=none;horizontalStack=0;resizeParent=1;resizeLast=0;collapsible=1;marginBottom=0;swimlaneFillColor=#ffffff;rounded=0;shadow=0;comic=0;labelBackgroundColor=none;strokeWidth=1;fontFamily=Verdana;fontSize=10;align=center;" parent="1" vertex="1">
          <mxGeometry x="520" y="640" width="230" height="118" as="geometry" />
        </mxCell>
        <mxCell id="kXERH5WRXTDbvPKdv0Vd-57" value="+ Main:&amp;nbsp;" style="text;html=1;strokeColor=none;fillColor=none;align=left;verticalAlign=top;spacingLeft=4;spacingRight=4;whiteSpace=wrap;overflow=hidden;rotatable=0;points=[[0,0.5],[1,0.5]];portConstraint=eastwest;" parent="kXERH5WRXTDbvPKdv0Vd-56" vertex="1">
          <mxGeometry y="40" width="230" height="26" as="geometry" />
        </mxCell>
        <mxCell id="kXERH5WRXTDbvPKdv0Vd-58" value="+ Form:&amp;nbsp;" style="text;html=1;strokeColor=none;fillColor=none;align=left;verticalAlign=top;spacingLeft=4;spacingRight=4;whiteSpace=wrap;overflow=hidden;rotatable=0;points=[[0,0.5],[1,0.5]];portConstraint=eastwest;" parent="kXERH5WRXTDbvPKdv0Vd-56" vertex="1">
          <mxGeometry y="66" width="230" height="26" as="geometry" />
        </mxCell>
        <mxCell id="kXERH5WRXTDbvPKdv0Vd-59" value="+ EditForm:&amp;nbsp;" style="text;html=1;strokeColor=none;fillColor=none;align=left;verticalAlign=top;spacingLeft=4;spacingRight=4;whiteSpace=wrap;overflow=hidden;rotatable=0;points=[[0,0.5],[1,0.5]];portConstraint=eastwest;" parent="kXERH5WRXTDbvPKdv0Vd-56" vertex="1">
          <mxGeometry y="92" width="230" height="26" as="geometry" />
        </mxCell>
        <mxCell id="0vwsj-OxrEaZ8M-4bbcg-91" style="edgeStyle=orthogonalEdgeStyle;rounded=0;orthogonalLoop=1;jettySize=auto;html=1;exitX=-0.007;exitY=0.158;exitDx=0;exitDy=0;entryX=1;entryY=0.5;entryDx=0;entryDy=0;exitPerimeter=0;" edge="1" parent="1" source="kXERH5WRXTDbvPKdv0Vd-69" target="kXERH5WRXTDbvPKdv0Vd-68">
          <mxGeometry relative="1" as="geometry">
            <Array as="points">
              <mxPoint x="460" y="795" />
              <mxPoint x="460" y="301" />
            </Array>
          </mxGeometry>
        </mxCell>
        <mxCell id="kXERH5WRXTDbvPKdv0Vd-69" value="&lt;i style=&quot;border-color: var(--border-color); font-size: 12px; font-family: Helvetica;&quot;&gt;&amp;lt;&amp;lt;class&amp;gt;&amp;gt;&lt;/i&gt;&lt;br style=&quot;border-color: var(--border-color); font-size: 12px; font-family: Helvetica;&quot;&gt;&lt;b style=&quot;border-color: var(--border-color); font-size: 12px; background-color: initial; font-family: Helvetica;&quot;&gt;HandleObject&lt;/b&gt;" style="swimlane;html=1;fontStyle=0;childLayout=stackLayout;horizontal=1;startSize=40;fillColor=none;horizontalStack=0;resizeParent=1;resizeLast=0;collapsible=1;marginBottom=0;swimlaneFillColor=#ffffff;rounded=0;shadow=0;comic=0;labelBackgroundColor=none;strokeWidth=1;fontFamily=Verdana;fontSize=10;align=center;" parent="1" vertex="1">
          <mxGeometry x="520" y="776" width="230" height="118" as="geometry" />
        </mxCell>
        <mxCell id="kXERH5WRXTDbvPKdv0Vd-70" value="+ HandleObject(HandleType, Form): this&amp;nbsp;" style="text;html=1;strokeColor=none;fillColor=none;align=left;verticalAlign=top;spacingLeft=4;spacingRight=4;whiteSpace=wrap;overflow=hidden;rotatable=0;points=[[0,0.5],[1,0.5]];portConstraint=eastwest;" parent="kXERH5WRXTDbvPKdv0Vd-69" vertex="1">
          <mxGeometry y="40" width="230" height="26" as="geometry" />
        </mxCell>
        <mxCell id="kXERH5WRXTDbvPKdv0Vd-71" value="+ eType:&amp;nbsp;HandleType" style="text;html=1;strokeColor=none;fillColor=none;align=left;verticalAlign=top;spacingLeft=4;spacingRight=4;whiteSpace=wrap;overflow=hidden;rotatable=0;points=[[0,0.5],[1,0.5]];portConstraint=eastwest;" parent="kXERH5WRXTDbvPKdv0Vd-69" vertex="1">
          <mxGeometry y="66" width="230" height="26" as="geometry" />
        </mxCell>
        <mxCell id="kXERH5WRXTDbvPKdv0Vd-72" value="+ xCtrl: Form" style="text;html=1;strokeColor=none;fillColor=none;align=left;verticalAlign=top;spacingLeft=4;spacingRight=4;whiteSpace=wrap;overflow=hidden;rotatable=0;points=[[0,0.5],[1,0.5]];portConstraint=eastwest;" parent="kXERH5WRXTDbvPKdv0Vd-69" vertex="1">
          <mxGeometry y="92" width="230" height="26" as="geometry" />
        </mxCell>
        <mxCell id="kXERH5WRXTDbvPKdv0Vd-96" value="&lt;i style=&quot;border-color: var(--border-color); font-size: 12px; font-family: Helvetica;&quot;&gt;&amp;lt;&amp;lt;interface&amp;gt;&amp;gt;&lt;/i&gt;&lt;br style=&quot;border-color: var(--border-color); font-size: 12px; font-family: Helvetica;&quot;&gt;&lt;b style=&quot;border-color: var(--border-color); font-size: 12px; background-color: initial; font-family: Helvetica;&quot;&gt;IHandleRegistry&lt;/b&gt;" style="swimlane;html=1;fontStyle=0;childLayout=stackLayout;horizontal=1;startSize=40;fillColor=none;horizontalStack=0;resizeParent=1;resizeLast=0;collapsible=1;marginBottom=0;swimlaneFillColor=#ffffff;rounded=0;shadow=0;comic=0;labelBackgroundColor=none;strokeWidth=1;fontFamily=Verdana;fontSize=10;align=center;" parent="1" vertex="1">
          <mxGeometry x="520" y="920" width="230" height="92" as="geometry" />
        </mxCell>
        <mxCell id="kXERH5WRXTDbvPKdv0Vd-97" value="+ AddHandle(Form): void" style="text;html=1;strokeColor=none;fillColor=none;align=left;verticalAlign=top;spacingLeft=4;spacingRight=4;whiteSpace=wrap;overflow=hidden;rotatable=0;points=[[0,0.5],[1,0.5]];portConstraint=eastwest;" parent="kXERH5WRXTDbvPKdv0Vd-96" vertex="1">
          <mxGeometry y="40" width="230" height="26" as="geometry" />
        </mxCell>
        <mxCell id="kXERH5WRXTDbvPKdv0Vd-98" value="+ RemoveHandle(IntPtr): void" style="text;html=1;strokeColor=none;fillColor=none;align=left;verticalAlign=top;spacingLeft=4;spacingRight=4;whiteSpace=wrap;overflow=hidden;rotatable=0;points=[[0,0.5],[1,0.5]];portConstraint=eastwest;" parent="kXERH5WRXTDbvPKdv0Vd-96" vertex="1">
          <mxGeometry y="66" width="230" height="26" as="geometry" />
        </mxCell>
        <mxCell id="0vwsj-OxrEaZ8M-4bbcg-88" style="edgeStyle=orthogonalEdgeStyle;rounded=0;orthogonalLoop=1;jettySize=auto;html=1;exitX=-0.003;exitY=0.074;exitDx=0;exitDy=0;entryX=1;entryY=0.5;entryDx=0;entryDy=0;exitPerimeter=0;" edge="1" parent="1" source="kXERH5WRXTDbvPKdv0Vd-26" target="kXERH5WRXTDbvPKdv0Vd-33">
          <mxGeometry relative="1" as="geometry">
            <Array as="points">
              <mxPoint x="500" y="343" />
              <mxPoint x="500" y="249" />
            </Array>
          </mxGeometry>
        </mxCell>
        <mxCell id="0vwsj-OxrEaZ8M-4bbcg-92" style="edgeStyle=orthogonalEdgeStyle;rounded=0;orthogonalLoop=1;jettySize=auto;html=1;exitX=0;exitY=0.5;exitDx=0;exitDy=0;entryX=1;entryY=0.5;entryDx=0;entryDy=0;" edge="1" parent="1" source="kXERH5WRXTDbvPKdv0Vd-97" target="kXERH5WRXTDbvPKdv0Vd-88">
          <mxGeometry relative="1" as="geometry">
            <Array as="points">
              <mxPoint x="480" y="973" />
              <mxPoint x="480" y="1105" />
            </Array>
          </mxGeometry>
        </mxCell>
        <mxCell id="0vwsj-OxrEaZ8M-4bbcg-93" style="edgeStyle=orthogonalEdgeStyle;rounded=0;orthogonalLoop=1;jettySize=auto;html=1;exitX=0;exitY=0.5;exitDx=0;exitDy=0;entryX=1;entryY=0.5;entryDx=0;entryDy=0;" edge="1" parent="1" source="kXERH5WRXTDbvPKdv0Vd-98" target="kXERH5WRXTDbvPKdv0Vd-89">
          <mxGeometry relative="1" as="geometry">
            <Array as="points">
              <mxPoint x="500" y="999" />
              <mxPoint x="500" y="1131" />
            </Array>
          </mxGeometry>
        </mxCell>
        <mxCell id="0vwsj-OxrEaZ8M-4bbcg-104" style="edgeStyle=orthogonalEdgeStyle;rounded=0;orthogonalLoop=1;jettySize=auto;html=1;exitX=1;exitY=0.5;exitDx=0;exitDy=0;entryX=0;entryY=0.5;entryDx=0;entryDy=0;" edge="1" parent="1" source="0vwsj-OxrEaZ8M-4bbcg-95" target="0vwsj-OxrEaZ8M-4bbcg-96">
          <mxGeometry relative="1" as="geometry" />
        </mxCell>
        <mxCell id="0vwsj-OxrEaZ8M-4bbcg-95" value="Program" style="shape=process;whiteSpace=wrap;html=1;backgroundOutline=1;" vertex="1" parent="1">
          <mxGeometry x="100" y="-430" width="90" height="50" as="geometry" />
        </mxCell>
        <mxCell id="0vwsj-OxrEaZ8M-4bbcg-101" value="new" style="swimlane;whiteSpace=wrap;html=1;startSize=23;" vertex="1" parent="1">
          <mxGeometry x="480" y="-505" width="200" height="475" as="geometry" />
        </mxCell>
        <mxCell id="0vwsj-OxrEaZ8M-4bbcg-100" value="frmBatchView" style="shape=process;whiteSpace=wrap;html=1;backgroundOutline=1;" vertex="1" parent="0vwsj-OxrEaZ8M-4bbcg-101">
          <mxGeometry x="25" y="40" width="150" height="60" as="geometry" />
        </mxCell>
        <mxCell id="0vwsj-OxrEaZ8M-4bbcg-102" value="frmBatchView" style="shape=process;whiteSpace=wrap;html=1;backgroundOutline=1;" vertex="1" parent="0vwsj-OxrEaZ8M-4bbcg-101">
          <mxGeometry x="25" y="120" width="150" height="60" as="geometry" />
        </mxCell>
        <mxCell id="0vwsj-OxrEaZ8M-4bbcg-103" value="。。。" style="text;html=1;align=center;verticalAlign=middle;resizable=0;points=[];autosize=1;strokeColor=none;fillColor=none;" vertex="1" parent="0vwsj-OxrEaZ8M-4bbcg-101">
          <mxGeometry x="65" y="198" width="60" height="30" as="geometry" />
        </mxCell>
        <mxCell id="0vwsj-OxrEaZ8M-4bbcg-109" value="frmBatchView" style="shape=process;whiteSpace=wrap;html=1;backgroundOutline=1;" vertex="1" parent="1">
          <mxGeometry x="500" width="150" height="60" as="geometry" />
        </mxCell>
        <mxCell id="0vwsj-OxrEaZ8M-4bbcg-111" value="new" style="swimlane;whiteSpace=wrap;html=1;" vertex="1" parent="1">
          <mxGeometry x="240" y="-505" width="200" height="470" as="geometry" />
        </mxCell>
        <mxCell id="0vwsj-OxrEaZ8M-4bbcg-96" value="Application.Run(new frmMain());" style="shape=process;whiteSpace=wrap;html=1;backgroundOutline=1;" vertex="1" parent="0vwsj-OxrEaZ8M-4bbcg-111">
          <mxGeometry x="30" y="40" width="150" height="50" as="geometry" />
        </mxCell>
        <mxCell id="0vwsj-OxrEaZ8M-4bbcg-97" value="frmMain_Load" style="shape=process;whiteSpace=wrap;html=1;backgroundOutline=1;" vertex="1" parent="0vwsj-OxrEaZ8M-4bbcg-111">
          <mxGeometry x="30" y="130" width="150" height="60" as="geometry" />
        </mxCell>
        <mxCell id="0vwsj-OxrEaZ8M-4bbcg-105" style="edgeStyle=orthogonalEdgeStyle;rounded=0;orthogonalLoop=1;jettySize=auto;html=1;exitX=0.5;exitY=1;exitDx=0;exitDy=0;entryX=0.5;entryY=0;entryDx=0;entryDy=0;" edge="1" parent="0vwsj-OxrEaZ8M-4bbcg-111" source="0vwsj-OxrEaZ8M-4bbcg-96" target="0vwsj-OxrEaZ8M-4bbcg-97">
          <mxGeometry relative="1" as="geometry" />
        </mxCell>
        <mxCell id="0vwsj-OxrEaZ8M-4bbcg-98" value="frmMain_Shown" style="shape=process;whiteSpace=wrap;html=1;backgroundOutline=1;" vertex="1" parent="0vwsj-OxrEaZ8M-4bbcg-111">
          <mxGeometry x="30" y="230" width="150" height="60" as="geometry" />
        </mxCell>
        <mxCell id="0vwsj-OxrEaZ8M-4bbcg-106" style="edgeStyle=orthogonalEdgeStyle;rounded=0;orthogonalLoop=1;jettySize=auto;html=1;exitX=0.5;exitY=1;exitDx=0;exitDy=0;entryX=0.5;entryY=0;entryDx=0;entryDy=0;" edge="1" parent="0vwsj-OxrEaZ8M-4bbcg-111" source="0vwsj-OxrEaZ8M-4bbcg-97" target="0vwsj-OxrEaZ8M-4bbcg-98">
          <mxGeometry relative="1" as="geometry" />
        </mxCell>
        <mxCell id="0vwsj-OxrEaZ8M-4bbcg-99" value="TopMostTimer_Tick" style="shape=process;whiteSpace=wrap;html=1;backgroundOutline=1;" vertex="1" parent="0vwsj-OxrEaZ8M-4bbcg-111">
          <mxGeometry x="30" y="400" width="150" height="60" as="geometry" />
        </mxCell>
        <mxCell id="0vwsj-OxrEaZ8M-4bbcg-108" style="edgeStyle=orthogonalEdgeStyle;rounded=0;orthogonalLoop=1;jettySize=auto;html=1;exitX=0.5;exitY=1;exitDx=0;exitDy=0;" edge="1" parent="0vwsj-OxrEaZ8M-4bbcg-111" source="0vwsj-OxrEaZ8M-4bbcg-98" target="0vwsj-OxrEaZ8M-4bbcg-99">
          <mxGeometry relative="1" as="geometry" />
        </mxCell>
        <mxCell id="0vwsj-OxrEaZ8M-4bbcg-122" value="&lt;i style=&quot;border-color: var(--border-color); font-family: Helvetica; font-size: 12px;&quot;&gt;&amp;lt;&amp;lt;Form&amp;gt;&amp;gt;&lt;/i&gt;&lt;br style=&quot;border-color: var(--border-color); font-family: Helvetica; font-size: 12px;&quot;&gt;&lt;b style=&quot;border-color: var(--border-color); font-family: Helvetica; font-size: 12px; background-color: initial;&quot;&gt;frmBatchView&lt;/b&gt;" style="swimlane;html=1;fontStyle=0;childLayout=stackLayout;horizontal=1;startSize=50;fillColor=none;horizontalStack=0;resizeParent=1;resizeLast=0;collapsible=1;marginBottom=0;swimlaneFillColor=#ffffff;rounded=0;shadow=0;comic=0;labelBackgroundColor=none;strokeWidth=1;fontFamily=Verdana;fontSize=10;align=center;strokeColor=default;fontColor=#000000;" vertex="1" parent="1">
          <mxGeometry x="40" y="1320" width="460" height="1038" as="geometry">
            <mxRectangle x="40" y="160" width="100" height="50" as="alternateBounds" />
          </mxGeometry>
        </mxCell>
        <mxCell id="0vwsj-OxrEaZ8M-4bbcg-123" value="+&amp;nbsp; RECT&amp;nbsp; : struct" style="text;html=1;align=left;verticalAlign=top;spacingLeft=4;spacingRight=4;whiteSpace=wrap;overflow=hidden;rotatable=0;points=[[0,0.5],[1,0.5]];portConstraint=eastwest;labelBorderColor=none;strokeColor=default;" vertex="1" parent="0vwsj-OxrEaZ8M-4bbcg-122">
          <mxGeometry y="50" width="460" height="26" as="geometry" />
        </mxCell>
        <mxCell id="0vwsj-OxrEaZ8M-4bbcg-124" value="+&amp;nbsp; SystemMetric : enum&amp;nbsp;" style="text;html=1;align=left;verticalAlign=top;spacingLeft=4;spacingRight=4;whiteSpace=wrap;overflow=hidden;rotatable=0;points=[[0,0.5],[1,0.5]];portConstraint=eastwest;labelBorderColor=none;strokeColor=default;" vertex="1" parent="0vwsj-OxrEaZ8M-4bbcg-122">
          <mxGeometry y="76" width="460" height="26" as="geometry" />
        </mxCell>
        <mxCell id="0vwsj-OxrEaZ8M-4bbcg-125" value="+&amp;nbsp; HandleType : enum&amp;nbsp;" style="text;html=1;align=left;verticalAlign=top;spacingLeft=4;spacingRight=4;whiteSpace=wrap;overflow=hidden;rotatable=0;points=[[0,0.5],[1,0.5]];portConstraint=eastwest;labelBorderColor=none;strokeColor=default;" vertex="1" parent="0vwsj-OxrEaZ8M-4bbcg-122">
          <mxGeometry y="102" width="460" height="26" as="geometry" />
        </mxCell>
        <mxCell id="0vwsj-OxrEaZ8M-4bbcg-126" value="+&amp;nbsp; HandleObject : class&amp;nbsp;" style="text;html=1;align=left;verticalAlign=top;spacingLeft=4;spacingRight=4;whiteSpace=wrap;overflow=hidden;rotatable=0;points=[[0,0.5],[1,0.5]];portConstraint=eastwest;labelBorderColor=none;strokeColor=default;" vertex="1" parent="0vwsj-OxrEaZ8M-4bbcg-122">
          <mxGeometry y="128" width="460" height="26" as="geometry" />
        </mxCell>
        <mxCell id="0vwsj-OxrEaZ8M-4bbcg-127" value="+&amp;nbsp; frmBatchView(string, IHandleRegistry,AOI_CUSTOMERTYPE_ ) : this&amp;nbsp;" style="text;html=1;align=left;verticalAlign=top;spacingLeft=4;spacingRight=4;whiteSpace=wrap;overflow=hidden;rotatable=0;points=[[0,0.5],[1,0.5]];portConstraint=eastwest;labelBorderColor=none;strokeColor=none;" vertex="1" parent="0vwsj-OxrEaZ8M-4bbcg-122">
          <mxGeometry y="154" width="460" height="26" as="geometry" />
        </mxCell>
        <mxCell id="0vwsj-OxrEaZ8M-4bbcg-128" value="&amp;nbsp;&amp;nbsp;[&lt;font color=&quot;#009900&quot;&gt;DllImport&lt;/font&gt;(&lt;font color=&quot;#ff8000&quot;&gt;&quot;user32.dll&quot;&lt;/font&gt;)]" style="text;html=1;strokeColor=none;fillColor=none;align=left;verticalAlign=top;spacingLeft=4;spacingRight=4;whiteSpace=wrap;overflow=hidden;rotatable=0;points=[[0,0.5],[1,0.5]];portConstraint=eastwest;" vertex="1" parent="0vwsj-OxrEaZ8M-4bbcg-122">
          <mxGeometry y="180" width="460" height="26" as="geometry" />
        </mxCell>
        <mxCell id="0vwsj-OxrEaZ8M-4bbcg-129" value="&lt;span style=&quot;white-space: pre;&quot;&gt;&#x9;&lt;/span&gt;+ &lt;font&gt;FindWindow&lt;/font&gt;(string ,string): IntPtr" style="text;html=1;strokeColor=none;fillColor=none;align=left;verticalAlign=top;spacingLeft=4;spacingRight=4;whiteSpace=wrap;overflow=hidden;rotatable=0;points=[[0,0.5],[1,0.5]];portConstraint=eastwest;fontColor=#000000;" vertex="1" parent="0vwsj-OxrEaZ8M-4bbcg-122">
          <mxGeometry y="206" width="460" height="26" as="geometry" />
        </mxCell>
        <mxCell id="0vwsj-OxrEaZ8M-4bbcg-131" value="&#x9;&lt;span style=&quot;&quot;&gt;&lt;span style=&quot;&quot;&gt;&amp;nbsp;&amp;nbsp;&amp;nbsp;&amp;nbsp;&lt;span style=&quot;&quot;&gt;&lt;span style=&quot;white-space: pre;&quot;&gt;&amp;nbsp;&amp;nbsp;&amp;nbsp;&amp;nbsp;&lt;/span&gt;&lt;/span&gt;&lt;/span&gt;&lt;/span&gt;+&amp;nbsp;&lt;span style=&quot;background-color: initial;&quot;&gt;PostMessage(IntPtr, int, IntPtr, IntPtr): int&lt;br&gt;&lt;/span&gt;" style="text;html=1;strokeColor=none;fillColor=none;align=left;verticalAlign=top;spacingLeft=4;spacingRight=4;whiteSpace=wrap;overflow=hidden;rotatable=0;points=[[0,0.5],[1,0.5]];portConstraint=eastwest;fontColor=#000000;" vertex="1" parent="0vwsj-OxrEaZ8M-4bbcg-122">
          <mxGeometry y="232" width="460" height="26" as="geometry" />
        </mxCell>
        <mxCell id="0vwsj-OxrEaZ8M-4bbcg-160" value="+&amp;nbsp; dataManager&amp;nbsp; : DataManagerBase" style="text;html=1;align=left;verticalAlign=top;spacingLeft=4;spacingRight=4;whiteSpace=wrap;overflow=hidden;rotatable=0;points=[[0,0.5],[1,0.5]];portConstraint=eastwest;labelBorderColor=none;strokeColor=none;" vertex="1" parent="0vwsj-OxrEaZ8M-4bbcg-122">
          <mxGeometry y="258" width="460" height="26" as="geometry" />
        </mxCell>
        <mxCell id="0vwsj-OxrEaZ8M-4bbcg-140" value="+&amp;nbsp; _rcLight&amp;nbsp; : Rectangle &amp;nbsp;=&amp;nbsp;new Rectangle(25, 660, 20, 20);" style="text;html=1;align=left;verticalAlign=top;spacingLeft=4;spacingRight=4;whiteSpace=wrap;overflow=hidden;rotatable=0;points=[[0,0.5],[1,0.5]];portConstraint=eastwest;labelBorderColor=none;strokeColor=none;" vertex="1" parent="0vwsj-OxrEaZ8M-4bbcg-122">
          <mxGeometry y="284" width="460" height="26" as="geometry" />
        </mxCell>
        <mxCell id="0vwsj-OxrEaZ8M-4bbcg-141" value="+&amp;nbsp; m_LastSelGridView&amp;nbsp; : DataGridView" style="text;html=1;align=left;verticalAlign=top;spacingLeft=4;spacingRight=4;whiteSpace=wrap;overflow=hidden;rotatable=0;points=[[0,0.5],[1,0.5]];portConstraint=eastwest;labelBorderColor=none;strokeColor=none;" vertex="1" parent="0vwsj-OxrEaZ8M-4bbcg-122">
          <mxGeometry y="310" width="460" height="26" as="geometry" />
        </mxCell>
        <mxCell id="0vwsj-OxrEaZ8M-4bbcg-161" value="+&amp;nbsp; m_xEdidForm : frmAddnEdit" style="text;html=1;align=left;verticalAlign=top;spacingLeft=4;spacingRight=4;whiteSpace=wrap;overflow=hidden;rotatable=0;points=[[0,0.5],[1,0.5]];portConstraint=eastwest;labelBorderColor=none;strokeColor=none;" vertex="1" parent="0vwsj-OxrEaZ8M-4bbcg-122">
          <mxGeometry y="336" width="460" height="26" as="geometry" />
        </mxCell>
        <mxCell id="0vwsj-OxrEaZ8M-4bbcg-142" value="+&amp;nbsp; m_lastCreate : DB.IEditable" style="text;html=1;align=left;verticalAlign=top;spacingLeft=4;spacingRight=4;whiteSpace=wrap;overflow=hidden;rotatable=0;points=[[0,0.5],[1,0.5]];portConstraint=eastwest;labelBorderColor=none;strokeColor=none;" vertex="1" parent="0vwsj-OxrEaZ8M-4bbcg-122">
          <mxGeometry y="362" width="460" height="26" as="geometry" />
        </mxCell>
        <mxCell id="0vwsj-OxrEaZ8M-4bbcg-143" value="+&amp;nbsp; m_CurSel&amp;nbsp; : DB.IEditable" style="text;html=1;align=left;verticalAlign=top;spacingLeft=4;spacingRight=4;whiteSpace=wrap;overflow=hidden;rotatable=0;points=[[0,0.5],[1,0.5]];portConstraint=eastwest;labelBorderColor=none;strokeColor=none;" vertex="1" parent="0vwsj-OxrEaZ8M-4bbcg-122">
          <mxGeometry y="388" width="460" height="26" as="geometry" />
        </mxCell>
        <mxCell id="0vwsj-OxrEaZ8M-4bbcg-144" value="+&amp;nbsp; m_xReg&amp;nbsp; : IHandleRegistry" style="text;html=1;align=left;verticalAlign=top;spacingLeft=4;spacingRight=4;whiteSpace=wrap;overflow=hidden;rotatable=0;points=[[0,0.5],[1,0.5]];portConstraint=eastwest;labelBorderColor=none;strokeColor=none;" vertex="1" parent="0vwsj-OxrEaZ8M-4bbcg-122">
          <mxGeometry y="414" width="460" height="26" as="geometry" />
        </mxCell>
        <mxCell id="0vwsj-OxrEaZ8M-4bbcg-147" value="+&amp;nbsp; _DBStatus : bool =false" style="text;html=1;align=left;verticalAlign=top;spacingLeft=4;spacingRight=4;whiteSpace=wrap;overflow=hidden;rotatable=0;points=[[0,0.5],[1,0.5]];portConstraint=eastwest;labelBorderColor=none;strokeColor=none;" vertex="1" parent="0vwsj-OxrEaZ8M-4bbcg-122">
          <mxGeometry y="440" width="460" height="26" as="geometry" />
        </mxCell>
        <mxCell id="0vwsj-OxrEaZ8M-4bbcg-149" value="+&amp;nbsp; m_DBName: string" style="text;html=1;align=left;verticalAlign=top;spacingLeft=4;spacingRight=4;whiteSpace=wrap;overflow=hidden;rotatable=0;points=[[0,0.5],[1,0.5]];portConstraint=eastwest;labelBorderColor=none;strokeColor=none;" vertex="1" parent="0vwsj-OxrEaZ8M-4bbcg-122">
          <mxGeometry y="466" width="460" height="26" as="geometry" />
        </mxCell>
        <mxCell id="0vwsj-OxrEaZ8M-4bbcg-150" value="+&amp;nbsp; m_Server : string" style="text;html=1;align=left;verticalAlign=top;spacingLeft=4;spacingRight=4;whiteSpace=wrap;overflow=hidden;rotatable=0;points=[[0,0.5],[1,0.5]];portConstraint=eastwest;labelBorderColor=none;strokeColor=none;" vertex="1" parent="0vwsj-OxrEaZ8M-4bbcg-122">
          <mxGeometry y="492" width="460" height="26" as="geometry" />
        </mxCell>
        <mxCell id="0vwsj-OxrEaZ8M-4bbcg-162" value="+&amp;nbsp; m_Aoi_ShowHide : bool" style="text;html=1;align=left;verticalAlign=top;spacingLeft=4;spacingRight=4;whiteSpace=wrap;overflow=hidden;rotatable=0;points=[[0,0.5],[1,0.5]];portConstraint=eastwest;labelBorderColor=none;strokeColor=none;" vertex="1" parent="0vwsj-OxrEaZ8M-4bbcg-122">
          <mxGeometry y="518" width="460" height="26" as="geometry" />
        </mxCell>
        <mxCell id="0vwsj-OxrEaZ8M-4bbcg-164" value="+&amp;nbsp; strDBCon: string" style="text;html=1;align=left;verticalAlign=top;spacingLeft=4;spacingRight=4;whiteSpace=wrap;overflow=hidden;rotatable=0;points=[[0,0.5],[1,0.5]];portConstraint=eastwest;labelBorderColor=none;strokeColor=none;" vertex="1" parent="0vwsj-OxrEaZ8M-4bbcg-122">
          <mxGeometry y="544" width="460" height="26" as="geometry" />
        </mxCell>
        <mxCell id="0vwsj-OxrEaZ8M-4bbcg-195" value="+&amp;nbsp; WM_CLOSE: const int&amp;nbsp;= 0x10" style="text;html=1;align=left;verticalAlign=top;spacingLeft=4;spacingRight=4;whiteSpace=wrap;overflow=hidden;rotatable=0;points=[[0,0.5],[1,0.5]];portConstraint=eastwest;labelBorderColor=none;strokeColor=none;" vertex="1" parent="0vwsj-OxrEaZ8M-4bbcg-122">
          <mxGeometry y="570" width="460" height="26" as="geometry" />
        </mxCell>
        <mxCell id="0vwsj-OxrEaZ8M-4bbcg-151" value="+&amp;nbsp; frmBatchView_Load(object, EventArgs) : void" style="text;html=1;align=left;verticalAlign=top;spacingLeft=4;spacingRight=4;whiteSpace=wrap;overflow=hidden;rotatable=0;points=[[0,0.5],[1,0.5]];portConstraint=eastwest;labelBorderColor=none;strokeColor=default;dashed=1;" vertex="1" parent="0vwsj-OxrEaZ8M-4bbcg-122">
          <mxGeometry y="596" width="460" height="26" as="geometry" />
        </mxCell>
        <mxCell id="0vwsj-OxrEaZ8M-4bbcg-197" style="edgeStyle=orthogonalEdgeStyle;rounded=0;orthogonalLoop=1;jettySize=auto;html=1;exitX=1;exitY=0.5;exitDx=0;exitDy=0;entryX=1;entryY=0.5;entryDx=0;entryDy=0;" edge="1" parent="0vwsj-OxrEaZ8M-4bbcg-122" source="0vwsj-OxrEaZ8M-4bbcg-152" target="0vwsj-OxrEaZ8M-4bbcg-151">
          <mxGeometry relative="1" as="geometry">
            <Array as="points">
              <mxPoint x="500" y="635" />
              <mxPoint x="500" y="609" />
            </Array>
          </mxGeometry>
        </mxCell>
        <mxCell id="0vwsj-OxrEaZ8M-4bbcg-152" value="+&amp;nbsp; CreateEditForm : void" style="text;html=1;align=left;verticalAlign=top;spacingLeft=4;spacingRight=4;whiteSpace=wrap;overflow=hidden;rotatable=0;points=[[0,0.5],[1,0.5]];portConstraint=eastwest;labelBorderColor=none;strokeColor=default;dashed=1;" vertex="1" parent="0vwsj-OxrEaZ8M-4bbcg-122">
          <mxGeometry y="622" width="460" height="26" as="geometry" />
        </mxCell>
        <mxCell id="0vwsj-OxrEaZ8M-4bbcg-198" style="edgeStyle=orthogonalEdgeStyle;rounded=0;orthogonalLoop=1;jettySize=auto;html=1;exitX=1;exitY=0.5;exitDx=0;exitDy=0;" edge="1" parent="0vwsj-OxrEaZ8M-4bbcg-122" source="0vwsj-OxrEaZ8M-4bbcg-196">
          <mxGeometry relative="1" as="geometry">
            <mxPoint x="460" y="610" as="targetPoint" />
            <Array as="points">
              <mxPoint x="520" y="661" />
              <mxPoint x="520" y="610" />
            </Array>
          </mxGeometry>
        </mxCell>
        <mxCell id="0vwsj-OxrEaZ8M-4bbcg-196" value="+&amp;nbsp; InitGrid: void" style="text;html=1;align=left;verticalAlign=top;spacingLeft=4;spacingRight=4;whiteSpace=wrap;overflow=hidden;rotatable=0;points=[[0,0.5],[1,0.5]];portConstraint=eastwest;labelBorderColor=none;strokeColor=default;dashed=1;" vertex="1" parent="0vwsj-OxrEaZ8M-4bbcg-122">
          <mxGeometry y="648" width="460" height="26" as="geometry" />
        </mxCell>
        <mxCell id="0vwsj-OxrEaZ8M-4bbcg-200" value="+&amp;nbsp; OnQueryThreadCallBack(&lt;font color=&quot;#009900&quot;&gt;GridDataType&lt;/font&gt;, int, bool): void" style="text;html=1;align=left;verticalAlign=top;spacingLeft=4;spacingRight=4;whiteSpace=wrap;overflow=hidden;rotatable=0;points=[[0,0.5],[1,0.5]];portConstraint=eastwest;labelBorderColor=none;strokeColor=default;dashed=1;" vertex="1" parent="0vwsj-OxrEaZ8M-4bbcg-122">
          <mxGeometry y="674" width="460" height="26" as="geometry" />
        </mxCell>
        <mxCell id="0vwsj-OxrEaZ8M-4bbcg-201" style="edgeStyle=orthogonalEdgeStyle;rounded=0;orthogonalLoop=1;jettySize=auto;html=1;exitX=1;exitY=0.5;exitDx=0;exitDy=0;entryX=1;entryY=0.5;entryDx=0;entryDy=0;" edge="1" parent="0vwsj-OxrEaZ8M-4bbcg-122" source="0vwsj-OxrEaZ8M-4bbcg-199" target="0vwsj-OxrEaZ8M-4bbcg-200">
          <mxGeometry relative="1" as="geometry">
            <Array as="points">
              <mxPoint x="500" y="713" />
              <mxPoint x="500" y="687" />
            </Array>
          </mxGeometry>
        </mxCell>
        <mxCell id="0vwsj-OxrEaZ8M-4bbcg-199" value="+&amp;nbsp; UpdateGridViewCount(&lt;font color=&quot;#009900&quot;&gt;DataGridView&lt;/font&gt;, int): void" style="text;html=1;align=left;verticalAlign=top;spacingLeft=4;spacingRight=4;whiteSpace=wrap;overflow=hidden;rotatable=0;points=[[0,0.5],[1,0.5]];portConstraint=eastwest;labelBorderColor=none;strokeColor=default;dashed=1;" vertex="1" parent="0vwsj-OxrEaZ8M-4bbcg-122">
          <mxGeometry y="700" width="460" height="26" as="geometry" />
        </mxCell>
        <mxCell id="0vwsj-OxrEaZ8M-4bbcg-202" value="+&amp;nbsp; UpdateLabelText(&lt;font color=&quot;#009900&quot;&gt;Label&lt;/font&gt;, string): void" style="text;html=1;align=left;verticalAlign=top;spacingLeft=4;spacingRight=4;whiteSpace=wrap;overflow=hidden;rotatable=0;points=[[0,0.5],[1,0.5]];portConstraint=eastwest;labelBorderColor=none;strokeColor=default;dashed=1;" vertex="1" parent="0vwsj-OxrEaZ8M-4bbcg-122">
          <mxGeometry y="726" width="460" height="26" as="geometry" />
        </mxCell>
        <mxCell id="0vwsj-OxrEaZ8M-4bbcg-203" value="+&amp;nbsp; frmBatchView_Paint(&lt;font color=&quot;#009900&quot;&gt;object&lt;/font&gt;, &lt;font color=&quot;#009900&quot;&gt;PaintEventArgs&lt;/font&gt;): void" style="text;html=1;align=left;verticalAlign=top;spacingLeft=4;spacingRight=4;whiteSpace=wrap;overflow=hidden;rotatable=0;points=[[0,0.5],[1,0.5]];portConstraint=eastwest;labelBorderColor=none;strokeColor=default;dashed=1;" vertex="1" parent="0vwsj-OxrEaZ8M-4bbcg-122">
          <mxGeometry y="752" width="460" height="26" as="geometry" />
        </mxCell>
        <mxCell id="0vwsj-OxrEaZ8M-4bbcg-204" value="+&amp;nbsp; dgv_CellValueNeeded(&lt;font color=&quot;#009900&quot;&gt;object&lt;/font&gt; , &lt;font color=&quot;#009900&quot;&gt;DataGridViewCellValueEventArgs&lt;/font&gt; ): void" style="text;html=1;align=left;verticalAlign=top;spacingLeft=4;spacingRight=4;whiteSpace=wrap;overflow=hidden;rotatable=0;points=[[0,0.5],[1,0.5]];portConstraint=eastwest;labelBorderColor=none;strokeColor=default;dashed=1;" vertex="1" parent="0vwsj-OxrEaZ8M-4bbcg-122">
          <mxGeometry y="778" width="460" height="26" as="geometry" />
        </mxCell>
        <mxCell id="0vwsj-OxrEaZ8M-4bbcg-205" value="+&amp;nbsp; GetGridViewType(&lt;font color=&quot;#009900&quot;&gt;DataGridView&lt;/font&gt;): &lt;font color=&quot;#009900&quot;&gt;GridDataType&lt;/font&gt;" style="text;html=1;align=left;verticalAlign=top;spacingLeft=4;spacingRight=4;whiteSpace=wrap;overflow=hidden;rotatable=0;points=[[0,0.5],[1,0.5]];portConstraint=eastwest;labelBorderColor=none;strokeColor=default;dashed=1;" vertex="1" parent="0vwsj-OxrEaZ8M-4bbcg-122">
          <mxGeometry y="804" width="460" height="26" as="geometry" />
        </mxCell>
        <mxCell id="0vwsj-OxrEaZ8M-4bbcg-206" value="+&amp;nbsp; btn_Click(&lt;font color=&quot;#009900&quot;&gt;object&lt;/font&gt;, &lt;font color=&quot;#009900&quot;&gt;EventArgs&lt;/font&gt;): void" style="text;html=1;align=left;verticalAlign=top;spacingLeft=4;spacingRight=4;whiteSpace=wrap;overflow=hidden;rotatable=0;points=[[0,0.5],[1,0.5]];portConstraint=eastwest;labelBorderColor=none;strokeColor=default;dashed=1;" vertex="1" parent="0vwsj-OxrEaZ8M-4bbcg-122">
          <mxGeometry y="830" width="460" height="26" as="geometry" />
        </mxCell>
        <mxCell id="0vwsj-OxrEaZ8M-4bbcg-207" value="+&amp;nbsp; dgv_RowStateChanged(&lt;font color=&quot;#009900&quot;&gt;object&lt;/font&gt;, &lt;font color=&quot;#009900&quot;&gt;DataGridViewRowStateChangedEventArgs&lt;/font&gt;): void" style="text;html=1;align=left;verticalAlign=top;spacingLeft=4;spacingRight=4;whiteSpace=wrap;overflow=hidden;rotatable=0;points=[[0,0.5],[1,0.5]];portConstraint=eastwest;labelBorderColor=none;strokeColor=default;dashed=1;" vertex="1" parent="0vwsj-OxrEaZ8M-4bbcg-122">
          <mxGeometry y="856" width="460" height="26" as="geometry" />
        </mxCell>
        <mxCell id="0vwsj-OxrEaZ8M-4bbcg-208" value="+&amp;nbsp; OnCancelEdit: void" style="text;html=1;align=left;verticalAlign=top;spacingLeft=4;spacingRight=4;whiteSpace=wrap;overflow=hidden;rotatable=0;points=[[0,0.5],[1,0.5]];portConstraint=eastwest;labelBorderColor=none;strokeColor=default;dashed=1;" vertex="1" parent="0vwsj-OxrEaZ8M-4bbcg-122">
          <mxGeometry y="882" width="460" height="26" as="geometry" />
        </mxCell>
        <mxCell id="0vwsj-OxrEaZ8M-4bbcg-246" value="+&amp;nbsp; OnFinishEdit(&lt;font color=&quot;#009900&quot;&gt;frmAddnEdit.FormType&lt;/font&gt;, &lt;font color=&quot;#009900&quot;&gt;DB.IEditable&lt;/font&gt;, &lt;font color=&quot;#009900&quot;&gt;DB.IEditable&lt;/font&gt;): void" style="text;html=1;align=left;verticalAlign=top;spacingLeft=4;spacingRight=4;whiteSpace=wrap;overflow=hidden;rotatable=0;points=[[0,0.5],[1,0.5]];portConstraint=eastwest;labelBorderColor=none;strokeColor=default;dashed=1;" vertex="1" parent="0vwsj-OxrEaZ8M-4bbcg-122">
          <mxGeometry y="908" width="460" height="26" as="geometry" />
        </mxCell>
        <mxCell id="0vwsj-OxrEaZ8M-4bbcg-247" value="+&amp;nbsp; Set_AOI_ShowHide(bool): void" style="text;html=1;align=left;verticalAlign=top;spacingLeft=4;spacingRight=4;whiteSpace=wrap;overflow=hidden;rotatable=0;points=[[0,0.5],[1,0.5]];portConstraint=eastwest;labelBorderColor=none;strokeColor=default;dashed=1;" vertex="1" parent="0vwsj-OxrEaZ8M-4bbcg-122">
          <mxGeometry y="934" width="460" height="26" as="geometry" />
        </mxCell>
        <mxCell id="0vwsj-OxrEaZ8M-4bbcg-248" value="+&amp;nbsp; CloseEditWindow: void" style="text;html=1;align=left;verticalAlign=top;spacingLeft=4;spacingRight=4;whiteSpace=wrap;overflow=hidden;rotatable=0;points=[[0,0.5],[1,0.5]];portConstraint=eastwest;labelBorderColor=none;strokeColor=default;dashed=1;" vertex="1" parent="0vwsj-OxrEaZ8M-4bbcg-122">
          <mxGeometry y="960" width="460" height="26" as="geometry" />
        </mxCell>
        <mxCell id="0vwsj-OxrEaZ8M-4bbcg-249" value="+&amp;nbsp; Get_AOI_ShowHide: void" style="text;html=1;align=left;verticalAlign=top;spacingLeft=4;spacingRight=4;whiteSpace=wrap;overflow=hidden;rotatable=0;points=[[0,0.5],[1,0.5]];portConstraint=eastwest;labelBorderColor=none;strokeColor=default;dashed=1;" vertex="1" parent="0vwsj-OxrEaZ8M-4bbcg-122">
          <mxGeometry y="986" width="460" height="26" as="geometry" />
        </mxCell>
      </root>
    </mxGraphModel>
  </diagram>
</mxfile>
